<svg xmlns="http://www.w3.org/2000/svg" xmlns:xlink="http://www.w3.org/1999/xlink" width="1080" zoomAndPan="magnify" viewBox="0 0 810 809.999993" height="1080" preserveAspectRatio="xMidYMid meet" version="1.0"><path fill="#f7f7f7" d="M 352.0625 136.175781 C 357.460938 183.5625 397.734375 220.414062 446.539062 220.414062 C 456.78125 220.414062 466.648438 218.789062 475.894531 215.792969 C 476.480469 218.136719 477.148438 220.472656 477.878906 222.773438 C 474.316406 232.753906 472.375 243.507812 472.375 254.707031 C 472.375 307.191406 514.984375 349.804688 567.46875 349.804688 C 589.292969 349.804688 609.414062 342.4375 625.472656 330.050781 C 619.347656 342.613281 615.910156 356.722656 615.910156 371.628906 C 615.910156 416.125 646.542969 453.527344 687.851562 463.878906 L 687.851562 560.457031 C 687.851562 638.507812 624.480469 701.878906 546.429688 701.878906 L 263.570312 701.878906 C 185.515625 701.878906 122.148438 638.507812 122.148438 560.457031 L 122.148438 277.605469 C 122.148438 199.542969 185.515625 136.175781 263.570312 136.175781 Z M 287.417969 563.566406 L 287.417969 527.460938 L 370.269531 527.460938 L 370.269531 601.441406 C 354.414062 612.25 340.386719 619.605469 328.195312 623.511719 C 316.003906 627.421875 301.546875 629.371094 284.820312 629.371094 C 264.21875 629.371094 247.4375 625.863281 234.457031 618.835938 C 221.476562 611.816406 211.414062 601.359375 204.273438 587.46875 C 197.136719 573.585938 193.566406 557.648438 193.566406 539.65625 C 193.566406 520.71875 197.46875 504.246094 205.277344 490.242188 C 213.09375 476.234375 224.535156 465.601562 239.601562 458.347656 C 251.359375 452.738281 267.183594 449.9375 287.066406 449.9375 C 306.238281 449.9375 320.582031 451.671875 330.085938 455.148438 C 339.597656 458.617188 347.488281 464.003906 353.757812 471.300781 C 360.035156 478.605469 364.746094 487.851562 367.90625 499.058594 L 316.179688 508.289062 C 314.054688 501.742188 310.441406 496.734375 305.351562 493.257812 C 300.257812 489.789062 293.777344 488.054688 285.878906 488.054688 C 274.121094 488.054688 264.753906 492.136719 257.773438 500.304688 C 250.792969 508.472656 247.296875 521.386719 247.296875 539.0625 C 247.296875 557.84375 250.828125 571.261719 257.894531 579.308594 C 264.953125 587.355469 274.796875 591.378906 287.417969 591.378906 C 293.417969 591.378906 299.136719 590.511719 304.582031 588.777344 C 310.03125 587.042969 316.261719 584.078125 323.28125 579.894531 L 323.28125 563.566406 Z M 402.230469 452.898438 L 502.597656 452.898438 C 519.324219 452.898438 532.167969 457.039062 541.125 465.328125 C 550.082031 473.609375 554.558594 483.871094 554.558594 496.101562 C 554.558594 506.359375 551.359375 515.15625 544.972656 522.492188 C 540.707031 527.386719 534.476562 531.253906 526.269531 534.089844 C 538.734375 537.09375 547.910156 542.242188 553.789062 549.539062 C 559.667969 556.835938 562.605469 566.011719 562.605469 577.058594 C 562.605469 586.050781 560.511719 594.136719 556.332031 601.320312 C 552.148438 608.5 546.429688 614.179688 539.167969 618.363281 C 534.671875 620.96875 527.886719 622.859375 518.808594 624.046875 C 506.738281 625.625 498.730469 626.410156 494.785156 626.410156 L 402.230469 626.410156 Z M 456.316406 589.128906 L 483.65625 589.128906 C 492.890625 589.128906 499.402344 587.496094 503.183594 584.214844 C 506.976562 580.941406 508.867188 576.546875 508.867188 571.019531 C 508.867188 565.894531 506.996094 561.769531 503.25 558.652344 C 499.5 555.535156 492.929688 553.976562 483.539062 553.976562 L 456.316406 553.976562 Z M 456.316406 520.953125 L 479.632812 520.953125 C 487.996094 520.953125 493.820312 519.515625 497.09375 516.632812 C 500.367188 513.757812 502.003906 509.59375 502.003906 504.152344 C 502.003906 499.097656 500.367188 495.15625 497.09375 492.3125 C 493.820312 489.472656 488.117188 488.054688 479.988281 488.054688 L 456.316406 488.054688 Z M 456.316406 520.953125 " fill-opacity="1" fill-rule="evenodd"/></svg>