<svg xmlns="http://www.w3.org/2000/svg" xmlns:xlink="http://www.w3.org/1999/xlink" width="1080" zoomAndPan="magnify" viewBox="0 0 810 809.999993" height="1080" preserveAspectRatio="xMidYMid meet" version="1.0"><defs><clipPath id="472a0d2d34"><path d="M 64 76 L 747.90625 76 L 747.90625 716 L 64 716 Z M 64 76 " clip-rule="nonzero"/></clipPath><clipPath id="4961c4adcc"><path d="M 119 127 L 747.90625 127 L 747.90625 426 L 119 426 Z M 119 127 " clip-rule="nonzero"/></clipPath></defs><g clip-path="url(#472a0d2d34)"><path fill="#ffffff" d="M 546.78125 110.652344 C 575.039062 125.277344 601.773438 142.839844 624.8125 164.84375 C 628.574219 168.429688 632.414062 171.757812 636.417969 175.0625 C 643.308594 181.042969 648.859375 187.910156 654.515625 195.050781 C 657.003906 198.1875 659.554688 201.269531 662.175781 204.296875 C 673.316406 217.222656 682.035156 231.308594 690.589844 246.015625 C 691.945312 248.351562 693.316406 250.679688 694.703125 252.996094 C 722.820312 300.101562 733.488281 355.402344 734.429688 409.625 C 733.390625 469.328125 718.917969 527.222656 688.414062 578.886719 C 678.914062 594.160156 668.476562 608.878906 656.707031 622.5 L 653.160156 626.621094 C 622.796875 661.054688 586.398438 694.355469 542.640625 710.132812 C 538.375 711.398438 538.375 711.398438 536.476562 713.535156 C 519.066406 716.625 500.199219 717.289062 483.230469 711.816406 L 477.933594 710.21875 C 463.742188 705.425781 453.773438 698.878906 443.722656 687.769531 C 428.167969 669.394531 425.074219 642.257812 420.9375 619.433594 C 419.09375 608.945312 417.4375 598.429688 415.96875 587.882812 C 414.085938 574.613281 411.753906 563.378906 404.21875 552.078125 L 400.570312 546.496094 C 391.199219 532.613281 380.445312 520.371094 368.894531 508.28125 C 365.105469 504.308594 361.347656 500.296875 357.628906 496.257812 L 353.964844 492.339844 C 349.859375 487.113281 347.925781 482.15625 346.785156 475.644531 L 347.539062 471.351562 C 351.273438 467.023438 354.425781 463.613281 359.5625 461.046875 C 365.988281 460.222656 370.03125 460.425781 376.09375 462.84375 C 379.351562 464.382812 382.609375 465.929688 385.863281 467.484375 C 395.636719 472.03125 403.617188 473.398438 414.417969 472.855469 C 422.761719 472.015625 429.078125 470.007812 436.289062 465.753906 C 444.273438 463.210938 453.558594 466.023438 461.628906 467.75 C 464.414062 468.378906 467.199219 469.011719 469.980469 469.648438 L 474.625 470.699219 C 479.652344 471.839844 484.683594 472.984375 489.710938 474.136719 L 500.273438 476.53125 C 509.523438 478.628906 518.769531 480.730469 528.019531 482.835938 C 542.808594 486.199219 557.597656 489.558594 572.390625 492.910156 C 577.535156 494.078125 582.675781 495.25 587.820312 496.421875 L 597.371094 498.59375 L 601.644531 499.570312 C 611.378906 501.777344 621.148438 503.785156 630.945312 505.703125 L 626.652344 503.882812 C 594.503906 490.234375 562.480469 476.316406 530.570312 462.117188 L 525.738281 459.964844 C 513.171875 454.375 513.171875 454.375 507.136719 451.664062 C 499.402344 448.183594 491.636719 444.769531 483.84375 441.421875 L 479.09375 439.359375 C 476.125 438.070312 473.148438 436.796875 470.164062 435.546875 C 463.832031 432.777344 459.609375 430.558594 454.671875 425.597656 C 451.828125 421.507812 449.5 417.347656 447.160156 412.953125 C 435.683594 397.957031 422.039062 385.367188 404.871094 377.320312 C 382.441406 368.996094 359.601562 368.558594 336.1875 372.285156 C 323.523438 374.8125 314.179688 378.949219 304.167969 387.1875 C 293.640625 397.234375 287.488281 409.503906 283.339844 423.367188 C 281.023438 437.972656 281.605469 450.136719 286.761719 464.089844 C 295.410156 484.265625 306.796875 502.039062 320.054688 519.445312 L 322.332031 522.441406 C 331.0625 533.886719 340.144531 544.964844 349.578125 555.835938 C 375.523438 585.785156 375.523438 585.785156 381.164062 603.246094 C 383.753906 616.804688 382.910156 631.199219 379.097656 644.398438 C 371.996094 664.617188 361.457031 680.300781 345.472656 694.585938 C 331.34375 705.542969 314.050781 711.667969 296.539062 714.59375 C 275.960938 715.722656 255.753906 708.519531 237.363281 699.757812 C 229.628906 695.730469 222.414062 691.058594 215.28125 686.050781 L 211.855469 683.65625 C 195.914062 672.359375 181.230469 660.121094 167.1875 646.546875 L 162.382812 642.011719 C 135.328125 615.871094 114.066406 584.515625 98.484375 550.359375 L 96.726562 546.523438 C 73.691406 495.601562 61.25 439.804688 65.847656 383.753906 C 72.519531 324.402344 91.046875 267.074219 126.527344 218.578125 C 144.992188 193.871094 164.960938 170.667969 189.515625 151.875 C 191.242188 150.484375 192.96875 149.09375 194.75 147.660156 C 207.316406 137.601562 220.410156 128.996094 234.410156 121.0625 C 237.445312 119.324219 240.460938 117.558594 243.460938 115.765625 C 275.046875 97.765625 310.207031 87.773438 345.820312 81.453125 L 349.367188 80.777344 C 414.488281 68.644531 487.746094 81.417969 546.78125 110.652344 M 230.738281 150.15625 C 214.8125 160.890625 199.925781 172.914062 186.082031 186.226562 L 183.359375 188.785156 C 160.015625 210.804688 141.46875 235.449219 125.964844 263.519531 L 124.167969 266.734375 C 108.179688 295.726562 98.933594 327.1875 93.332031 359.707031 L 92.15625 366.339844 C 84.875 414.699219 90.65625 464.933594 107.070312 510.855469 L 108.574219 515.125 C 124.074219 558.441406 149.128906 594.734375 180.929688 627.652344 L 184.046875 631.042969 C 207.789062 656.210938 239.117188 675.664062 270.996094 688.414062 C 284.507812 690.785156 298.042969 691.121094 311.144531 686.695312 C 323.589844 681.480469 334.929688 674.574219 343.398438 663.910156 C 351.359375 652 358.320312 638.667969 359.5625 624.21875 C 359.976562 615.90625 359.519531 608.6875 355.765625 601.152344 C 349.136719 591.292969 341.042969 582.433594 333.265625 573.46875 C 302.804688 538.367188 270.347656 498.070312 259.082031 452.027344 C 256.519531 434.972656 259.660156 418.160156 265.722656 402.15625 C 270.992188 389.515625 278.429688 378.394531 288.703125 369.246094 C 293.265625 365.824219 297.992188 362.644531 302.878906 359.707031 L 306.347656 357.53125 C 320.539062 349.527344 338.296875 346.90625 354.40625 345.964844 L 358.527344 345.691406 C 376.691406 345.0625 397.886719 347.535156 414.242188 355.902344 L 417.960938 357.988281 L 422.859375 360.558594 C 441.152344 370.585938 454.609375 382.753906 466.414062 399.9375 L 469.488281 404.363281 L 472.027344 408.359375 C 478.289062 415 485.621094 418.222656 493.769531 422.175781 L 499.128906 424.835938 C 502.960938 426.734375 506.800781 428.625 510.644531 430.507812 C 516.726562 433.484375 522.789062 436.488281 528.855469 439.5 C 540.628906 445.339844 552.421875 451.152344 564.210938 456.957031 C 580.25 464.855469 596.277344 472.769531 612.289062 480.710938 C 618.273438 483.671875 624.265625 486.609375 630.257812 489.546875 L 641.234375 494.984375 L 646.304688 497.449219 L 650.941406 499.761719 L 654.96875 501.742188 C 658.972656 504.339844 661.140625 506.757812 663.578125 510.855469 C 663.257812 516.332031 663.257812 516.332031 661.859375 521.160156 C 657.460938 523.359375 653.597656 523.207031 648.746094 523.140625 C 641.179688 522.652344 633.835938 521.097656 626.417969 519.59375 L 621.03125 518.535156 C 615.183594 517.386719 609.34375 516.21875 603.5 515.050781 C 599.425781 514.246094 595.347656 513.4375 591.273438 512.636719 C 580.5625 510.519531 569.855469 508.394531 559.144531 506.257812 C 546.132812 503.667969 533.121094 501.097656 520.109375 498.523438 C 509.984375 496.523438 499.859375 494.515625 489.734375 492.503906 L 484.09375 491.382812 L 473.691406 489.3125 C 452.566406 484.410156 452.566406 484.410156 431.308594 486.1875 C 428.757812 487.109375 426.207031 488.039062 423.65625 488.96875 C 413.914062 492.089844 404.257812 492.652344 394.234375 490.675781 C 388.257812 489.144531 383.707031 486.617188 378.453125 483.375 L 373.300781 485.089844 L 377.582031 489.191406 C 400.601562 511.527344 423.972656 537.964844 433.417969 569.253906 C 435.917969 580.890625 437.378906 592.746094 439.050781 604.523438 C 443.488281 637.871094 443.488281 637.871094 457.035156 668.230469 C 464.792969 677.199219 474.617188 683.457031 485.699219 687.554688 C 499.753906 691.152344 515.726562 691.824219 529.925781 688.648438 C 565.894531 678.214844 594.144531 652.964844 620.636719 627.652344 L 624.421875 624.144531 C 642.109375 607.285156 656.296875 586.746094 668.730469 565.820312 L 670.507812 562.839844 C 687.09375 534.546875 697.734375 503.273438 704.800781 471.351562 L 705.652344 467.699219 C 714.179688 429.984375 713.558594 385.273438 704.800781 347.683594 L 703.792969 343.097656 C 692.289062 291.425781 668.570312 246.195312 633.628906 206.515625 C 631.035156 203.742188 628.425781 200.984375 625.789062 198.25 L 623.316406 195.644531 C 586.292969 156.75 538.9375 128.867188 487.535156 113.445312 C 400.695312 88.535156 307.105469 102 230.738281 150.15625 M 797.550781 172.484375 L 840.492188 172.484375 L 832.234375 230.292969 C 831.703125 234.011719 831.171875 237.726562 830.644531 241.441406 C 829.554688 249.082031 828.460938 256.722656 827.335938 264.359375 L 826.402344 270.71875 L 825.628906 275.910156 C 824.167969 287.644531 823.453125 298.726562 827.824219 309.894531 C 830.417969 314.929688 832.328125 317.132812 836.734375 320.953125 C 848.863281 326.894531 858.859375 327.730469 872.355469 327.5 C 880.179688 326.933594 886.78125 325.582031 893.738281 321.917969 C 900.875 316.566406 905.070312 309.847656 908.757812 301.835938 C 911.214844 295.359375 912.777344 288.882812 914.164062 282.117188 L 915.039062 277.878906 C 919.101562 257.695312 921.960938 237.292969 924.976562 216.929688 C 925.886719 210.792969 926.804688 204.660156 927.726562 198.527344 C 928.296875 194.746094 928.859375 190.964844 929.414062 187.179688 L 930.179688 182.078125 L 930.84375 177.582031 L 931.527344 174.203125 L 933.242188 172.484375 C 936.425781 172.335938 939.617188 172.300781 942.804688 172.316406 L 948.660156 172.335938 L 954.820312 172.378906 L 961.003906 172.402344 C 966.0625 172.421875 971.125 172.449219 976.183594 172.484375 C 973.019531 196.335938 969.640625 220.140625 965.882812 243.90625 C 965.121094 248.738281 964.375 253.574219 963.632812 258.414062 C 954.320312 318.015625 954.320312 318.015625 938.980469 337.578125 C 925.914062 351.445312 909.816406 357.445312 892.019531 363.140625 C 875.398438 368.054688 853.21875 366.921875 836.269531 364.175781 C 823.550781 361.082031 812.171875 354.960938 802.703125 345.964844 C 793.183594 336.878906 787.636719 327.652344 783.8125 315.046875 C 776.777344 286.378906 784.371094 254.410156 788.855469 225.945312 C 789.507812 221.699219 790.152344 217.453125 790.796875 213.207031 C 792.210938 203.9375 793.648438 194.671875 795.105469 185.40625 C 795.832031 181.085938 796.691406 176.785156 797.550781 172.484375 M 2078.890625 172.484375 C 2081.574219 172.347656 2084.261719 172.292969 2086.949219 172.316406 L 2091.863281 172.335938 L 2097.035156 172.378906 L 2102.222656 172.402344 C 2106.46875 172.421875 2110.714844 172.449219 2114.960938 172.484375 L 2116.679688 175.921875 C 2116.152344 180.644531 2115.507812 185.347656 2114.746094 190.039062 L 2114.0625 194.464844 C 2113.304688 199.328125 2112.539062 204.1875 2111.765625 209.046875 L 2110.179688 219.21875 C 2109.0625 226.355469 2107.945312 233.488281 2106.816406 240.621094 C 2105.386719 249.6875 2103.964844 258.753906 2102.546875 267.820312 C 2101.1875 276.535156 2099.824219 285.25 2098.457031 293.960938 L 2097.683594 298.894531 C 2094.496094 319.207031 2091.136719 339.472656 2087.476562 359.707031 C 2060.535156 365.503906 2035.421875 367.898438 2008.46875 359.707031 C 1997.476562 355.675781 1988.601562 350.023438 1980.570312 341.46875 C 1973.484375 331.863281 1968.925781 319.988281 1967.246094 308.175781 C 1967.152344 293.949219 1969.078125 281.269531 1975.832031 268.671875 C 1983.589844 255.664062 1994.828125 246.453125 2007.933594 239.042969 C 2025.816406 230.84375 2045.78125 229.566406 2065.148438 230.886719 L 2068.585938 232.601562 C 2069.363281 226.089844 2070.152344 219.578125 2070.945312 213.066406 L 2071.605469 207.542969 C 2074.371094 185 2074.371094 185 2077.171875 174.203125 Z M 2025.324219 269.855469 C 2019.546875 274.601562 2014.375 279.628906 2010.1875 285.847656 C 2007.351562 294.117188 2007.648438 303.007812 2008.46875 311.613281 C 2009.871094 317 2011.722656 321.105469 2015.339844 325.355469 C 2021.242188 329.4375 2027.464844 331.683594 2034.234375 333.941406 C 2037.488281 334.058594 2040.746094 334.085938 2044.003906 334.050781 L 2049.175781 334 L 2053.125 333.941406 C 2054.324219 326.640625 2055.515625 319.34375 2056.699219 312.042969 C 2057.105469 309.566406 2057.507812 307.089844 2057.914062 304.613281 C 2061.230469 284.996094 2061.230469 284.996094 2063.433594 265.238281 L 2061.714844 263.519531 C 2049.042969 262.304688 2036.601562 263.882812 2025.324219 269.855469 M 1793.765625 172.484375 L 1831.554688 172.484375 C 1829.070312 193.089844 1826.15625 213.59375 1823.019531 234.105469 L 1821.558594 243.707031 C 1820.542969 250.363281 1819.527344 257.011719 1818.507812 263.664062 C 1817.210938 272.160156 1815.914062 280.65625 1814.628906 289.152344 C 1813.625 295.742188 1812.621094 302.328125 1811.613281 308.914062 C 1811.132812 312.046875 1810.65625 315.179688 1810.183594 318.316406 C 1809.519531 322.6875 1808.851562 327.0625 1808.175781 331.4375 L 1807.597656 335.296875 C 1806.308594 343.582031 1804.488281 351.59375 1802.355469 359.707031 C 1778.109375 366.199219 1753.304688 367.402344 1728.820312 361.363281 C 1716.644531 357.675781 1707.476562 353.128906 1698.652344 343.816406 C 1691.382812 335.035156 1687.410156 325.761719 1683.839844 315.046875 C 1682.914062 300.375 1682.472656 285.605469 1688.992188 272.109375 C 1695.914062 260.175781 1703.851562 251.082031 1715.503906 243.648438 C 1736.082031 232.183594 1756.355469 230.417969 1779.457031 230.765625 L 1785.179688 230.886719 L 1785.371094 226.710938 C 1786.078125 214.429688 1787.445312 202.222656 1789.472656 190.09375 L 1790.152344 186 C 1791.816406 176.386719 1791.816406 176.386719 1793.765625 172.484375 M 1741.894531 269.054688 C 1735.96875 273.164062 1731.460938 277.273438 1727.746094 283.488281 C 1724.039062 291.492188 1722.816406 297.367188 1722.980469 306.3125 C 1723.59375 312.335938 1725.53125 316.675781 1728.496094 321.917969 C 1733.214844 326.636719 1737.433594 329.835938 1743.421875 332.761719 C 1751.578125 334.457031 1759.695312 334.550781 1768.003906 333.941406 L 1769.71875 332.222656 C 1770.484375 328.03125 1771.15625 323.859375 1771.765625 319.644531 L 1772.335938 315.796875 C 1772.734375 313.101562 1773.128906 310.40625 1773.519531 307.710938 C 1774.117188 303.609375 1774.722656 299.507812 1775.339844 295.40625 L 1776.492188 287.546875 L 1777.042969 283.851562 C 1778.023438 277.015625 1778.492188 270.421875 1778.308594 263.519531 C 1765.679688 263.046875 1753.214844 262.761719 1741.894531 269.054688 M 1177.15625 232.382812 C 1182.089844 232.195312 1187.023438 232.066406 1191.957031 231.957031 L 1196.609375 231.761719 L 1200.9375 231.703125 L 1204.738281 231.601562 L 1208.0625 232.601562 C 1213.328125 239.179688 1214.929688 246.738281 1216.722656 254.804688 L 1217.625 258.695312 C 1218.566406 262.769531 1219.488281 266.847656 1220.40625 270.929688 C 1221.042969 273.703125 1221.679688 276.476562 1222.324219 279.25 C 1223.878906 286.027344 1225.425781 292.804688 1226.953125 299.589844 C 1228.699219 296.273438 1230.441406 292.957031 1232.183594 289.640625 C 1233.726562 286.722656 1235.289062 283.8125 1236.871094 280.917969 C 1241.015625 273.265625 1244.6875 265.773438 1247.648438 257.582031 C 1254.476562 239.925781 1254.476562 239.925781 1261.308594 234.320312 C 1274.527344 229.980469 1288.875 231.199219 1302.53125 232.601562 C 1301.566406 238.53125 1300.15625 243.003906 1297.101562 248.167969 C 1296.320312 249.511719 1295.535156 250.855469 1294.730469 252.238281 L 1292.117188 256.648438 C 1283.933594 270.71875 1275.933594 284.886719 1268.117188 299.164062 C 1259.441406 314.988281 1250.707031 330.773438 1241.660156 346.394531 L 1239.296875 350.484375 C 1234.058594 359.472656 1234.058594 359.472656 1232.109375 361.421875 C 1227.476562 361.550781 1222.890625 361.582031 1218.257812 361.53125 L 1214.3125 361.507812 C 1211.082031 361.484375 1207.855469 361.457031 1204.625 361.421875 C 1200.808594 346.988281 1197 332.550781 1193.203125 318.109375 C 1191.441406 311.402344 1189.675781 304.699219 1187.902344 297.996094 C 1186.191406 291.527344 1184.488281 285.058594 1182.789062 278.585938 C 1182.140625 276.117188 1181.488281 273.648438 1180.832031 271.183594 C 1179.917969 267.726562 1179.007812 264.269531 1178.109375 260.808594 L 1176.535156 254.84375 C 1175.425781 249.777344 1175.425781 249.777344 1175.425781 242.910156 L 1171.992188 242.910156 L 1171.726562 246.269531 C 1170.664062 258.828125 1169.027344 271.238281 1167.160156 283.695312 L 1166.257812 289.800781 C 1165.628906 294.027344 1165 298.253906 1164.367188 302.480469 C 1163.402344 308.953125 1162.441406 315.425781 1161.484375 321.902344 L 1159.648438 334.257812 L 1158.777344 340.117188 L 1157.960938 345.558594 L 1157.25 350.332031 C 1156.617188 354.0625 1155.734375 357.753906 1154.816406 361.421875 L 1117.027344 361.421875 C 1119.414062 337.878906 1122.773438 314.585938 1126.5 291.21875 C 1127.449219 285.246094 1128.394531 279.269531 1129.335938 273.292969 L 1132 256.445312 L 1132.800781 251.433594 L 1133.496094 247.058594 C 1134.222656 242.792969 1135.050781 238.558594 1135.921875 234.320312 C 1149.664062 233.539062 1163.40625 232.96875 1177.15625 232.382812 M 883.433594 455.890625 C 885.992188 455.753906 888.550781 455.695312 891.117188 455.722656 L 895.792969 455.742188 L 900.714844 455.785156 L 905.65625 455.808594 C 909.699219 455.832031 913.742188 455.859375 917.785156 455.890625 C 916.605469 474.847656 913.820312 493.5625 911.136719 512.34375 L 909.664062 522.695312 C 908.644531 529.890625 907.617188 537.082031 906.585938 544.273438 C 905.269531 553.476562 903.960938 562.683594 902.664062 571.890625 C 901.65625 579 900.644531 586.105469 899.628906 593.214844 C 899.144531 596.609375 898.664062 600.003906 898.183594 603.398438 C 897.515625 608.140625 896.835938 612.878906 896.152344 617.617188 L 895.5625 621.835938 C 894.476562 629.257812 892.9375 636.042969 890.304688 643.113281 C 865.71875 646.527344 840.734375 649.777344 816.667969 641.394531 C 806.878906 636.863281 799.027344 631.039062 792.398438 622.5 C 786.222656 612.679688 782.542969 602.132812 781.578125 590.53125 C 781.535156 577.574219 781.535156 565.625 787.246094 553.796875 C 794.125 541.9375 802.046875 532.753906 813.621094 525.34375 C 830.742188 516.058594 846.597656 514.117188 865.707031 514.0625 C 869.691406 514.292969 869.691406 514.292969 873.125 516.007812 L 873.886719 510.675781 C 874.820312 504.164062 875.757812 497.660156 876.699219 491.152344 C 877.109375 488.332031 877.511719 485.511719 877.914062 482.691406 C 878.496094 478.644531 879.078125 474.597656 879.667969 470.550781 L 880.210938 466.707031 C 880.65625 463.667969 881.179688 460.636719 881.714844 457.609375 Z M 835.339844 552.078125 C 829.679688 555.679688 826.285156 559.28125 822.886719 564.960938 C 818.851562 573.027344 817.640625 578.753906 817.792969 587.878906 C 818.425781 594.226562 820.210938 599.757812 823.316406 605.324219 C 828.542969 610.550781 833.535156 613.292969 840.492188 615.628906 C 845.46875 616.042969 845.46875 616.042969 850.476562 615.84375 L 855.554688 615.75 L 859.386719 615.628906 C 864.105469 592.878906 866.996094 569.992188 869.691406 546.925781 C 866.414062 546.871094 863.136719 546.824219 859.863281 546.792969 L 854.332031 546.714844 C 846.84375 547.015625 842.070312 548.773438 835.339844 552.078125 M 1915.335938 234.152344 L 1919.558594 234.160156 C 1923.96875 234.167969 1928.375 234.191406 1932.785156 234.210938 C 1935.792969 234.222656 1938.800781 234.230469 1941.804688 234.234375 C 1949.140625 234.253906 1956.476562 234.285156 1963.808594 234.320312 C 1961.308594 257.722656 1957.882812 280.96875 1954.339844 304.238281 C 1953.390625 310.496094 1952.441406 316.757812 1951.503906 323.015625 L 1949.6875 334.996094 L 1948.835938 340.644531 L 1948.035156 345.878906 L 1947.339844 350.46875 C 1946.703125 354.152344 1945.824219 357.792969 1944.917969 361.421875 L 1907.128906 361.421875 L 1907.128906 352.835938 L 1903.796875 354.59375 C 1892.183594 360.582031 1881.332031 365.8125 1867.917969 365.394531 C 1857.929688 363.957031 1848.570312 359.648438 1840.464844 353.695312 C 1834.164062 347.75 1831.019531 340.726562 1828.023438 332.691406 C 1824.164062 319.324219 1823.835938 306.894531 1826.511719 293.257812 C 1830.238281 279.316406 1836.757812 268.4375 1846.582031 257.9375 C 1857.496094 247.667969 1869.515625 241.015625 1883.90625 236.96875 C 1894.449219 234.699219 1904.605469 234.082031 1915.335938 234.152344 M 1886.050781 268.996094 C 1882.457031 271.527344 1879.355469 274.191406 1876.210938 277.261719 L 1873.199219 280.207031 C 1868.738281 285.292969 1866.265625 289.796875 1864.328125 296.300781 C 1862.589844 305.34375 1861.769531 313.21875 1864.402344 322.136719 C 1865.953125 326.371094 1867.402344 328.574219 1870.65625 331.730469 C 1875.433594 334.484375 1878.65625 334.742188 1884.15625 334.800781 C 1893.351562 334.484375 1900.949219 333.136719 1908.976562 328.515625 C 1912.527344 325.554688 1912.527344 325.554688 1913.925781 321.28125 C 1914.867188 315.773438 1915.273438 310.316406 1915.71875 304.742188 C 1916.554688 299.359375 1917.539062 294.003906 1918.507812 288.640625 C 1920.023438 280.160156 1921.171875 272.179688 1920.871094 263.519531 C 1909.125 263 1896.640625 263.464844 1886.050781 268.996094 M 1384.5 234.265625 C 1394.453125 238.773438 1401.558594 244.910156 1407.949219 253.75 C 1413.738281 263.191406 1415.570312 271.671875 1416.203125 282.636719 C 1416.3125 287.78125 1416.417969 292.75 1415.890625 297.871094 L 1412.457031 303.023438 C 1408.851562 303.644531 1408.851562 303.644531 1404.339844 303.609375 L 1399.238281 303.609375 L 1393.710938 303.527344 L 1388.066406 303.503906 C 1382.097656 303.476562 1376.128906 303.414062 1370.160156 303.347656 C 1366.121094 303.320312 1362.082031 303.296875 1358.042969 303.277344 C 1348.125 303.21875 1338.210938 303.132812 1328.292969 303.023438 C 1328.738281 306.066406 1329.210938 309.101562 1329.695312 312.136719 L 1330.484375 317.261719 C 1331.414062 321.898438 1331.414062 321.898438 1334.050781 325.011719 C 1338.199219 328.476562 1342.070312 330.519531 1347.1875 332.222656 C 1366.332031 333.941406 1380.96875 330.691406 1398.714844 323.636719 L 1403.75 321.636719 L 1407.304688 320.199219 C 1406.855469 323.636719 1406.390625 327.074219 1405.910156 330.507812 L 1405.121094 336.304688 C 1402.222656 350.703125 1402.222656 350.703125 1398.714844 356.269531 C 1393.984375 358.925781 1390.941406 360.199219 1385.835938 361.421875 L 1381.960938 362.445312 C 1365.359375 366.394531 1347.695312 367.28125 1330.984375 363.535156 C 1319.3125 359.5625 1309.96875 353.832031 1301.457031 344.890625 C 1294.234375 336.34375 1290.351562 326.800781 1287.789062 315.972656 C 1285.316406 300.941406 1287.117188 287.03125 1291.675781 272.566406 C 1296.363281 260.972656 1303.824219 252.953125 1313.265625 244.945312 C 1333.070312 230.332031 1361.269531 226.132812 1384.5 234.265625 M 1345 260.441406 C 1339.695312 264.859375 1336.105469 269.117188 1333.445312 275.542969 L 1333.445312 280.695312 L 1376.386719 280.695312 C 1378.601562 274.097656 1378.601562 274.097656 1376.816406 268.566406 C 1374.71875 263.636719 1373.695312 261.539062 1369.515625 258.367188 C 1361.253906 256.808594 1352.558594 256.425781 1345 260.441406 M 1089.332031 233.03125 C 1096.539062 237.070312 1101.738281 240.34375 1106.0625 247.503906 C 1111.714844 261.078125 1109.105469 277.859375 1107.292969 292.191406 C 1105.832031 302.734375 1104.140625 313.238281 1102.429688 323.742188 L 1100.691406 334.765625 C 1099.292969 343.65625 1097.855469 352.539062 1096.417969 361.421875 L 1056.910156 361.421875 C 1061.746094 321.605469 1061.746094 321.605469 1064.964844 302.808594 C 1067.101562 289.953125 1069.214844 276.507812 1067.21875 263.519531 C 1062.617188 259.867188 1062.617188 259.867188 1058.664062 259.761719 C 1052.675781 260.273438 1048.023438 260.972656 1042.78125 264.042969 C 1039.359375 266.621094 1036.109375 269.3125 1032.863281 272.109375 L 1029.351562 274.359375 C 1025.75 276.984375 1025.75 276.984375 1024.722656 280.921875 L 1024.140625 285.199219 L 1023.425781 290.0625 L 1022.753906 295.300781 L 1021.988281 300.683594 C 1021.183594 306.363281 1020.421875 312.046875 1019.660156 317.730469 C 1018.875 323.421875 1018.082031 329.109375 1017.277344 334.796875 C 1016.785156 338.335938 1016.296875 341.878906 1015.824219 345.421875 L 1015.160156 350.269531 L 1014.585938 354.546875 C 1013.972656 357.988281 1013.972656 357.988281 1012.253906 361.421875 L 974.464844 361.421875 C 978.082031 332.738281 982.265625 304.199219 986.8125 275.652344 L 988.726562 263.53125 C 990.265625 253.792969 991.808594 244.054688 993.359375 234.320312 L 1031.148438 234.320312 L 1029.429688 246.34375 L 1033.457031 243.835938 C 1050.324219 233.605469 1069.5 225.125 1089.332031 233.03125 M 1744.171875 515.902344 L 1750.144531 515.925781 C 1754.953125 515.945312 1759.761719 515.972656 1764.566406 516.007812 C 1765.082031 529.320312 1763.136719 542.234375 1761.308594 555.394531 C 1760.96875 557.867188 1760.628906 560.34375 1760.292969 562.820312 C 1759.582031 567.976562 1758.871094 573.136719 1758.152344 578.296875 C 1757.230469 584.914062 1756.332031 591.535156 1755.4375 598.152344 C 1754.746094 603.253906 1754.042969 608.351562 1753.332031 613.449219 C 1752.996094 615.890625 1752.664062 618.332031 1752.335938 620.773438 C 1751.875 624.175781 1751.398438 627.578125 1750.917969 630.972656 L 1750.109375 636.835938 L 1749.109375 641.394531 L 1745.671875 644.828125 C 1742.472656 645.246094 1742.472656 645.246094 1738.636719 645.226562 L 1734.464844 645.214844 L 1730.105469 645.152344 L 1725.730469 645.148438 C 1722.070312 645.121094 1718.414062 644.984375 1714.757812 644.828125 L 1713.039062 643.113281 C 1712.96875 640.25 1712.96875 637.386719 1713.039062 634.523438 L 1708.425781 637.746094 C 1699.273438 643.617188 1691.144531 645.917969 1680.363281 646.6875 C 1671.441406 646.441406 1664.121094 644.023438 1656.359375 639.675781 C 1649.453125 634.449219 1645.550781 628.703125 1642.082031 620.804688 C 1637.730469 608.191406 1635.808594 596.269531 1637.464844 582.996094 C 1640.589844 567.589844 1646.386719 553.992188 1656.359375 541.773438 C 1666.972656 531.335938 1678.523438 524.214844 1692.789062 520.054688 C 1709.707031 515.929688 1726.851562 515.769531 1744.171875 515.902344 M 1690.363281 554.550781 C 1684.382812 559.324219 1679.707031 564.300781 1676.109375 571.078125 C 1672.117188 581.382812 1672.078125 592.753906 1673.535156 603.605469 C 1676.035156 608.636719 1678.128906 611.703125 1682.335938 615.414062 C 1687.257812 617.335938 1689.542969 617.601562 1694.683594 617.238281 C 1701.554688 616.167969 1707.421875 614.019531 1713.675781 611.039062 C 1716.769531 608.855469 1716.769531 608.855469 1718.28125 604.886719 C 1719.898438 600.207031 1720.714844 596.019531 1721.3125 591.113281 C 1721.527344 589.414062 1721.742188 587.710938 1721.957031 585.960938 L 1722.59375 580.632812 C 1723.023438 577.148438 1723.457031 573.664062 1723.886719 570.179688 L 1724.488281 565.214844 C 1724.980469 561.296875 1725.558594 557.410156 1726.183594 553.511719 L 1726.78125 548.644531 L 1725.0625 546.925781 C 1712.511719 545.46875 1700.96875 547.613281 1690.363281 554.554688 M 1988.824219 516.4375 C 2000.613281 522.4375 2009.417969 529.207031 2017.054688 540.054688 C 2022.726562 551.277344 2026.226562 562.71875 2026.015625 575.386719 C 2024.398438 593.664062 2018.355469 609.386719 2008.253906 624.542969 C 1999.816406 633.851562 1987.832031 640.648438 1976.046875 644.722656 C 1962.839844 648.097656 1948.980469 648.019531 1935.792969 644.613281 C 1927.257812 641.613281 1920.351562 637.566406 1914 631.089844 C 1905.625 620.265625 1900.808594 608.476562 1898.542969 595.019531 C 1897.128906 581.375 1898.953125 568.378906 1903.695312 555.515625 C 1909.957031 542.972656 1917.863281 532.574219 1929.457031 524.597656 C 1946.957031 514.320312 1969.007812 509.371094 1988.824219 516.4375 M 1949.320312 550.683594 C 1943.90625 556.09375 1939.511719 561.339844 1937.101562 568.710938 C 1936.019531 574.285156 1935.964844 579.683594 1935.898438 585.355469 L 1935.765625 592.050781 C 1936.367188 598.871094 1937.992188 602.929688 1941.480469 608.761719 C 1943.878906 611.878906 1943.878906 611.878906 1946.632812 613.914062 C 1953.019531 616.042969 1958.886719 616.335938 1965.527344 615.628906 C 1972.074219 612.890625 1976.417969 608.722656 1980.75 603.105469 C 1985.679688 595.699219 1987.582031 589.355469 1988.40625 580.628906 C 1988.789062 569.332031 1988.789062 569.332031 1986.546875 558.34375 C 1983.433594 552.554688 1979.609375 548.683594 1974.117188 545.207031 C 1964.34375 542.914062 1956.988281 544.175781 1949.320312 550.683594 M 1252.613281 516.222656 C 1262.464844 520.253906 1270.082031 525.679688 1276.738281 534.019531 C 1283.738281 544.257812 1287.691406 553.457031 1288.789062 565.820312 C 1289.765625 581.195312 1287.292969 595.242188 1280.628906 609.1875 C 1273.6875 622.136719 1266.0625 631.355469 1253.53125 639.179688 C 1240.789062 645.824219 1227.679688 647.464844 1213.441406 647.011719 C 1205.246094 646.304688 1198.257812 645.160156 1190.886719 641.394531 C 1182.199219 635.210938 1174.429688 628.382812 1169.414062 618.851562 C 1162.296875 602.84375 1161.894531 586.4375 1163.402344 569.253906 C 1165.851562 556.441406 1172.21875 546.035156 1180.121094 535.789062 C 1188.292969 526.71875 1197.746094 520.253906 1209.242188 516.113281 C 1223.035156 512.609375 1238.886719 512.234375 1252.609375 516.222656 M 1216.113281 548.105469 C 1209.488281 553.804688 1205.535156 558.84375 1201.617188 566.679688 C 1198.265625 576.464844 1198.328125 586.542969 1199.472656 596.738281 C 1201 602.011719 1202.957031 606.152344 1206.34375 610.476562 C 1210.023438 614.175781 1210.023438 614.175781 1214.929688 615.628906 C 1222.59375 616.359375 1227.050781 616.222656 1234.253906 613.589844 C 1239.605469 610.0625 1242.421875 607.320312 1245.847656 601.890625 C 1251.28125 590.953125 1251.601562 580.160156 1251.683594 568.105469 C 1250.921875 561.722656 1249.105469 557.589844 1245.847656 552.078125 C 1242.359375 547.742188 1242.359375 547.742188 1237.257812 545.207031 C 1229.191406 543.75 1223.433594 544.375 1216.113281 548.105469 M 1003.664062 517.726562 C 1012.78125 522.800781 1019.34375 529.714844 1025.605469 537.953125 C 1034.050781 553.253906 1031.148438 566.78125 1031.148438 584.714844 L 950.417969 584.714844 C 952.222656 602.027344 952.222656 602.027344 957.503906 608.867188 C 963.597656 612.972656 968.957031 614.910156 976.183594 615.628906 C 990.65625 616.234375 1002.523438 611.4375 1015.535156 605.800781 C 1020.839844 603.605469 1020.839844 603.605469 1024.277344 603.605469 C 1023.214844 610.496094 1022.042969 617.355469 1020.839844 624.21875 L 1020.332031 628.023438 C 1019.769531 631.089844 1019.769531 631.089844 1017.40625 636.242188 C 1010.042969 642.105469 1000.609375 644.441406 991.472656 646.003906 C 975.054688 647.792969 958.898438 648.085938 943.550781 641.394531 C 934.207031 636.449219 927.273438 629.375 921.21875 620.78125 C 914.46875 607.425781 912.085938 594.882812 912.269531 579.996094 C 913.210938 565.472656 917.179688 552.703125 925.117188 540.492188 C 932.308594 531.128906 941.164062 523.964844 951.914062 519.0625 C 968.222656 513.109375 987.183594 511.628906 1003.664062 517.726562 M 963.320312 546.179688 C 959.800781 549.519531 957.550781 552.808594 955.574219 557.230469 L 955.574219 562.382812 L 996.796875 562.382812 L 995.078125 548.644531 C 990.8125 543.226562 990.8125 543.226562 984.773438 540.054688 C 975.550781 538.378906 970.386719 540.578125 963.320312 546.179688 M 1876.210938 517.726562 C 1883.433594 524.246094 1888.503906 530.828125 1891.671875 540.054688 C 1892.933594 552.847656 1891.089844 565.636719 1889.164062 578.273438 L 1888.378906 583.585938 C 1887.832031 587.25 1887.28125 590.917969 1886.722656 594.582031 C 1885.867188 600.203125 1885.042969 605.824219 1884.222656 611.449219 C 1883.6875 615.027344 1883.152344 618.601562 1882.613281 622.179688 L 1881.871094 627.269531 L 1881.140625 631.980469 L 1880.515625 636.121094 C 1879.648438 639.675781 1879.648438 639.675781 1876.210938 644.828125 C 1873.011719 645.441406 1873.011719 645.441406 1869.171875 645.394531 L 1865.003906 645.367188 L 1860.648438 645.257812 L 1856.265625 645.230469 C 1852.609375 645.183594 1848.949219 645.015625 1845.296875 644.828125 L 1843.578125 643.113281 C 1843.4375 627.28125 1846.394531 611.566406 1848.839844 595.984375 C 1853.105469 571.550781 1853.105469 571.550781 1852.164062 546.925781 L 1847.011719 543.492188 C 1841.585938 543.398438 1838.316406 543.546875 1833.273438 545.207031 C 1825.683594 549.933594 1819.351562 554.921875 1814.378906 562.382812 C 1813.457031 566.054688 1813.457031 566.054688 1812.9375 570.167969 L 1812.242188 574.925781 L 1811.535156 580.050781 L 1810.765625 585.316406 C 1809.675781 592.761719 1808.621094 600.214844 1807.5625 607.664062 C 1806.785156 613.09375 1805.996094 618.527344 1805.199219 623.957031 L 1804.488281 629.089844 L 1803.792969 633.832031 L 1803.203125 638.015625 L 1802.355469 641.394531 L 1798.917969 644.828125 C 1793.953125 645.125 1789.175781 645.226562 1784.214844 645.152344 L 1780.082031 645.148438 C 1776.625 645.121094 1773.171875 644.984375 1769.71875 644.828125 L 1768.003906 643.113281 C 1767.253906 630.097656 1769.414062 617.390625 1771.261719 604.539062 L 1772.277344 597.355469 C 1772.984375 592.367188 1773.699219 587.375 1774.417969 582.386719 C 1775.339844 575.992188 1776.238281 569.597656 1777.132812 563.199219 C 1777.824219 558.265625 1778.527344 553.332031 1779.238281 548.40625 C 1779.574219 546.046875 1779.90625 543.6875 1780.234375 541.328125 C 1780.695312 538.035156 1781.171875 534.746094 1781.652344 531.460938 L 1782.460938 525.796875 C 1783.460938 521.160156 1783.460938 521.160156 1786.898438 516.007812 C 1790.125 515.425781 1790.125 515.425781 1793.996094 515.503906 L 1798.1875 515.558594 L 1802.570312 515.6875 L 1806.992188 515.757812 C 1810.597656 515.816406 1814.207031 515.910156 1817.8125 516.007812 C 1818.976562 520.113281 1819.605469 522.492188 1818.78125 526.742188 L 1817.8125 529.75 L 1821.402344 527.242188 C 1838.261719 515.90625 1856.285156 509.1875 1876.210938 517.726562 M 1481.160156 455.890625 L 1517.230469 455.890625 C 1517.230469 466.441406 1516.890625 475.90625 1515.339844 486.191406 L 1514.730469 490.414062 C 1514.070312 494.957031 1513.398438 499.503906 1512.722656 504.046875 L 1511.335938 513.566406 C 1510.125 521.878906 1508.90625 530.191406 1507.679688 538.5 C 1506.203125 548.492188 1504.75 558.488281 1503.292969 568.480469 C 1501.082031 583.628906 1498.847656 598.769531 1496.621094 613.914062 L 1577.347656 613.914062 L 1573.914062 643.113281 C 1569.230469 645.453125 1565.53125 645.046875 1560.292969 645.054688 L 1553.808594 645.070312 L 1546.773438 645.058594 L 1539.570312 645.0625 C 1534.53125 645.0625 1529.496094 645.0625 1524.457031 645.054688 C 1518.011719 645.046875 1511.566406 645.046875 1505.121094 645.058594 C 1500.160156 645.066406 1495.199219 645.066406 1490.238281 645.058594 C 1487.863281 645.058594 1485.488281 645.0625 1483.109375 645.0625 C 1479.78125 645.066406 1476.453125 645.0625 1473.121094 645.050781 L 1467.382812 645.046875 C 1462.625 644.84375 1458.3125 644.195312 1453.679688 643.113281 C 1454.710938 622.8125 1457.445312 602.871094 1460.328125 582.765625 L 1461.796875 572.40625 C 1462.820312 565.21875 1463.84375 558.035156 1464.878906 550.851562 C 1466.199219 541.640625 1467.5 532.429688 1468.800781 523.21875 C 1469.804688 516.109375 1470.816406 509 1471.835938 501.894531 C 1472.320312 498.496094 1472.804688 495.101562 1473.28125 491.699219 C 1473.949219 486.96875 1474.625 482.238281 1475.3125 477.507812 L 1475.902344 473.269531 C 1476.882812 466.609375 1478.109375 462 1481.160156 455.890625 M 1608.417969 235.75 C 1613.417969 237.753906 1613.417969 237.753906 1622.003906 242.910156 L 1618.570312 272.109375 C 1613.285156 270.355469 1608.007812 268.578125 1602.734375 266.773438 L 1597.101562 264.917969 L 1591.464844 263.015625 C 1585.523438 261.710938 1581.507812 262.128906 1575.628906 263.519531 C 1573.988281 266.484375 1573.988281 266.484375 1573.914062 270.390625 C 1579.355469 276.398438 1585.367188 281.394531 1591.734375 286.386719 C 1600.554688 293.511719 1609.972656 301.289062 1615.136719 311.613281 C 1616.007812 321.710938 1616.722656 332.160156 1612.453125 341.566406 C 1608.214844 348.527344 1603.21875 353.753906 1596.242188 357.988281 C 1585.660156 362.792969 1574.910156 366.046875 1563.21875 365.539062 C 1548.3125 363.417969 1534.472656 358.753906 1520.667969 352.835938 L 1524.101562 325.355469 L 1529.253906 323.636719 C 1534.9375 325.246094 1540.449219 327.105469 1546.011719 329.085938 C 1554.511719 331.953125 1561.492188 332.855469 1570.476562 332.222656 C 1573.929688 329.933594 1573.929688 329.933594 1575.628906 327.070312 C 1574.621094 323.015625 1574.621094 323.015625 1572.195312 318.484375 C 1568.824219 315.589844 1565.316406 312.871094 1561.675781 310.324219 C 1550.933594 302.453125 1541.226562 294.011719 1534.089844 282.59375 C 1531.101562 274.878906 1531.847656 266.472656 1532.691406 258.367188 C 1534.886719 251.191406 1539.542969 245.964844 1544.820312 240.761719 C 1563.003906 226.289062 1587.804688 229.082031 1608.417969 235.75 M 2109.996094 520.765625 C 2113.242188 522.878906 2113.242188 522.878906 2115.457031 525.824219 C 2117.140625 531.242188 2116.59375 535.71875 2116.035156 541.34375 L 2115.457031 547.4375 L 2114.960938 552.078125 C 2112.035156 553.136719 2112.035156 553.136719 2108.089844 553.796875 C 2104.144531 552.523438 2104.144531 552.523438 2099.929688 550.574219 C 2092.101562 547.242188 2085.6875 545.507812 2077.171875 545.207031 L 2072.019531 548.644531 C 2073.1875 553.589844 2073.1875 553.589844 2075.457031 558.949219 C 2079.019531 562.609375 2079.019531 562.609375 2083.398438 565.605469 C 2104.988281 582.039062 2104.988281 582.039062 2109.914062 593.085938 C 2112.398438 601.308594 2111.71875 609.0625 2109.808594 617.347656 C 2107.273438 625.078125 2103.5 631.09375 2097.679688 636.777344 C 2091.390625 641.648438 2085.035156 644.078125 2077.3125 645.84375 C 2060.488281 648.082031 2045.589844 644.746094 2029.851562 638.898438 L 2025.644531 636.242188 C 2023.609375 631.167969 2023.917969 627.734375 2024.511719 622.304688 L 2025.539062 616.808594 L 2026.550781 611.25 L 2027.363281 607.042969 C 2033.765625 607.992188 2039.617188 609.300781 2045.71875 611.445312 C 2055.132812 614.394531 2063.953125 614.414062 2073.738281 613.914062 C 2074.167969 609.859375 2074.167969 609.859375 2073.738281 605.324219 C 2071.65625 602.144531 2071.65625 602.144531 2068.585938 599.527344 L 2065.261719 596.425781 C 2061.773438 593.359375 2058.261719 590.3125 2054.734375 587.289062 C 2047.265625 580.820312 2040.03125 574.179688 2035.707031 565.175781 C 2033.160156 557.394531 2033.3125 549.859375 2034.234375 541.773438 C 2036.195312 535.578125 2039.441406 531.414062 2043.996094 526.851562 C 2050.480469 521.050781 2056.371094 516.875 2064.933594 514.828125 C 2080.34375 513.039062 2095.667969 514.953125 2109.996094 520.765625 M 1368.449219 519.363281 C 1371.75 520.945312 1374.941406 522.753906 1378.105469 524.597656 C 1379.824219 528.03125 1379.824219 528.03125 1379.675781 533.132812 L 1379.179688 539.195312 L 1378.710938 545.261719 C 1378.105469 550.359375 1378.105469 550.359375 1376.386719 553.796875 C 1368.355469 551.953125 1360.632812 549.128906 1352.839844 546.484375 C 1346.820312 545.125 1342.835938 545.503906 1336.882812 546.925781 C 1336.0625 550.816406 1336.0625 550.816406 1336.882812 555.515625 C 1339.90625 558.902344 1343.164062 562.050781 1346.652344 564.960938 C 1348.484375 566.550781 1350.316406 568.144531 1352.144531 569.738281 L 1354.867188 572.082031 C 1361.574219 578.019531 1367.636719 584.371094 1372.953125 591.582031 C 1375.460938 599.113281 1375.457031 606.042969 1374.667969 613.914062 C 1372.800781 621.253906 1369.765625 626.992188 1364.949219 632.828125 C 1358.984375 638.671875 1353.097656 642.257812 1345.148438 644.828125 C 1331.875 647.753906 1319.074219 646.90625 1306.132812 642.84375 C 1289.875 637.332031 1289.875 637.332031 1287.070312 634.523438 C 1287.183594 631.511719 1287.417969 628.503906 1287.714844 625.507812 L 1288.183594 620.542969 C 1288.753906 616.007812 1289.527344 611.507812 1290.507812 607.042969 C 1297.480469 607.785156 1303.464844 608.992188 1310.042969 611.445312 C 1317.886719 614.199219 1325.1875 614.820312 1333.445312 613.914062 L 1336.882812 612.195312 C 1337.832031 608.328125 1337.832031 608.328125 1336.882812 603.605469 C 1333.34375 600.03125 1329.585938 596.707031 1325.609375 593.625 C 1323.394531 591.808594 1321.179688 589.984375 1318.972656 588.15625 L 1315.75 585.484375 C 1308.496094 579.289062 1302.542969 572.789062 1298.34375 564.210938 C 1296.804688 555.824219 1295.980469 548.078125 1298.496094 539.804688 C 1301.960938 532.03125 1306.648438 526.890625 1313.210938 521.550781 C 1329.078125 510.628906 1351.175781 512.441406 1368.449219 519.363281 M 1513.796875 230.886719 C 1519.664062 232.871094 1525.324219 235.210938 1530.972656 237.753906 C 1529.875 246.445312 1526.054688 253.695312 1522.277344 261.480469 L 1520.3125 265.582031 C 1518.722656 268.90625 1517.121094 272.226562 1515.515625 275.542969 L 1508.644531 275.542969 L 1505.636719 272.964844 C 1501.621094 269.890625 1501.621094 269.890625 1495.226562 269.425781 C 1490.804688 269.578125 1488.402344 270.167969 1484.589844 272.464844 C 1479.070312 277.015625 1475.492188 281.003906 1472.574219 287.566406 C 1471.644531 291.226562 1471.644531 291.226562 1471.078125 295.125 L 1470.351562 299.605469 L 1469.605469 304.394531 L 1468.8125 309.332031 C 1467.980469 314.527344 1467.164062 319.726562 1466.347656 324.925781 L 1464.65625 335.503906 C 1463.273438 344.144531 1461.914062 352.785156 1460.550781 361.421875 L 1422.761719 361.421875 C 1423.792969 345.886719 1425.535156 330.679688 1427.96875 315.300781 L 1428.988281 308.734375 C 1429.695312 304.199219 1430.40625 299.664062 1431.117188 295.128906 C 1432.035156 289.324219 1432.941406 283.515625 1433.839844 277.707031 C 1434.707031 272.132812 1435.578125 266.558594 1436.449219 260.984375 L 1437.429688 254.671875 L 1438.351562 248.847656 L 1439.15625 243.722656 C 1439.9375 239.472656 1439.9375 239.472656 1441.65625 234.320312 L 1479.445312 234.320312 L 1479.445312 248.0625 L 1481.710938 245.613281 C 1491.339844 235.546875 1499.179688 229.179688 1513.796875 230.886719 M 1134.203125 455.890625 C 1136.636719 455.753906 1139.074219 455.699219 1141.511719 455.722656 L 1145.957031 455.742188 L 1150.628906 455.785156 L 1155.320312 455.808594 C 1159.160156 455.832031 1163 455.859375 1166.839844 455.890625 C 1167.125 467.625 1166.371094 478.8125 1164.65625 490.417969 L 1163.957031 495.378906 C 1163.195312 500.738281 1162.417969 506.09375 1161.636719 511.445312 L 1160.035156 522.667969 C 1158.914062 530.480469 1157.789062 538.285156 1156.65625 546.09375 C 1155.207031 556.113281 1153.765625 566.136719 1152.339844 576.160156 C 1151.238281 583.871094 1150.128906 591.582031 1149.019531 599.289062 L 1147.425781 610.382812 C 1146.6875 615.53125 1145.941406 620.679688 1145.191406 625.824219 L 1144.53125 630.476562 C 1142.988281 641 1142.988281 641 1141.074219 644.828125 C 1135.992188 644.875 1130.914062 644.910156 1125.832031 644.9375 L 1121.449219 644.980469 L 1117.257812 644.996094 L 1113.382812 645.027344 C 1110.15625 644.828125 1110.15625 644.828125 1106.722656 643.113281 C 1110.910156 607.738281 1115.9375 572.488281 1120.976562 537.230469 C 1122.171875 528.839844 1123.363281 520.445312 1124.550781 512.050781 C 1125.472656 505.550781 1126.398438 499.050781 1127.328125 492.554688 L 1128.644531 483.253906 C 1129.253906 478.964844 1129.863281 474.679688 1130.480469 470.394531 L 1131.019531 466.523438 C 1131.457031 463.542969 1131.960938 460.574219 1132.484375 457.609375 Z M 1609.984375 455.890625 L 1642.617188 455.890625 C 1641.410156 475.53125 1638.726562 494.832031 1635.90625 514.292969 L 1634.425781 524.648438 C 1633.394531 531.835938 1632.359375 539.023438 1631.324219 546.214844 C 1629.996094 555.417969 1628.671875 564.628906 1627.355469 573.835938 C 1625.851562 584.34375 1624.34375 594.847656 1622.835938 605.351562 L 1620.789062 619.558594 L 1620.179688 623.785156 C 1619.660156 627.367188 1619.125 630.945312 1618.570312 634.523438 L 1617.789062 639.644531 L 1616.851562 643.113281 C 1611.429688 645.824219 1605.625 645.074219 1599.675781 645.042969 L 1595.839844 645.066406 C 1586.371094 645.046875 1586.371094 645.046875 1582.5 643.113281 C 1583.601562 623.484375 1586.367188 604.15625 1589.148438 584.714844 L 1590.621094 574.355469 C 1591.640625 567.167969 1592.667969 559.980469 1593.699219 552.792969 C 1595.015625 543.585938 1596.324219 534.375 1597.621094 525.167969 C 1598.625 518.058594 1599.636719 510.949219 1600.65625 503.84375 C 1601.140625 500.445312 1601.621094 497.050781 1602.101562 493.652344 C 1602.769531 488.917969 1603.449219 484.179688 1604.132812 479.449219 L 1604.722656 475.21875 L 1605.296875 471.296875 L 1605.78125 467.914062 C 1606.546875 464.480469 1606.546875 464.480469 1609.984375 455.890625 " fill-opacity="1" fill-rule="nonzero"/></g><g clip-path="url(#4961c4adcc)"><path fill="#ffffff" d="M 201.539062 203.402344 L 204.976562 203.402344 C 207.21875 205.683594 207.21875 205.683594 209.914062 208.984375 C 215.417969 215.476562 221.246094 221.484375 227.304688 227.449219 C 233.984375 234.046875 240.34375 240.75 246.425781 247.90625 C 253.429688 255.742188 261.039062 263.023438 268.527344 270.390625 C 266.046875 275.953125 262.929688 280.042969 258.867188 284.558594 L 255.578125 288.234375 L 253.070312 291 L 247.175781 288.746094 L 239.542969 285.847656 L 235.65625 284.359375 C 229.089844 281.667969 229.089844 281.667969 222.152344 280.695312 L 246.199219 297.871094 C 243.136719 303.996094 239.738281 309.40625 235.894531 315.046875 C 229 314.058594 224.382812 311.929688 218.535156 308.191406 L 213.457031 304.972656 L 208.089844 301.523438 L 197.011719 294.496094 L 191.453125 290.960938 C 183.703125 286.0625 175.882812 281.273438 168.046875 276.507812 L 164.066406 274.085938 L 155.164062 268.671875 C 155.746094 262.449219 156.742188 258.59375 160.058594 253.226562 C 161.308594 251.59375 162.566406 249.960938 163.859375 248.277344 L 167.675781 243.242188 L 170.625 239.472656 C 180.6875 240.359375 188.84375 242.484375 198.105469 246.453125 L 201.640625 247.917969 C 204.476562 249.09375 207.304688 250.292969 210.128906 251.496094 C 203.910156 245.019531 197.066406 239.738281 189.933594 234.320312 C 186.210938 231 184.46875 228.597656 182.648438 224.015625 L 190.160156 215.640625 L 194.386719 210.929688 C 196.710938 208.363281 199.09375 205.855469 201.539062 203.402344 M 527.886719 157.027344 C 535.34375 158.050781 540.734375 160.761719 547.210938 164.542969 L 552.710938 167.695312 L 557.085938 170.769531 L 558.804688 175.921875 C 557.894531 179.816406 557.894531 179.816406 556.339844 184.316406 L 554.679688 189.195312 L 552.898438 194.28125 L 551.136719 199.421875 C 549.699219 203.617188 548.246094 207.804688 546.78125 211.992188 L 550.214844 211.992188 C 550.621094 210.796875 551.023438 209.605469 551.433594 208.375 C 554.070312 202.464844 557.648438 197.632812 561.59375 192.5625 L 563.78125 189.699219 C 565.550781 187.390625 567.328125 185.089844 569.109375 182.792969 C 574.203125 183.457031 576.5625 184.941406 580.785156 188.058594 L 585.855469 192.34375 L 590.980469 196.644531 L 594.875 199.96875 C 592.117188 206.527344 587.929688 211.015625 583.113281 216.199219 L 580.59375 218.90625 C 571.824219 228.304688 562.917969 237.570312 553.882812 246.710938 C 552.050781 248.574219 550.226562 250.445312 548.414062 252.324219 C 545.742188 255.082031 543.050781 257.824219 540.347656 260.546875 L 535.585938 265.410156 L 531.320312 268.671875 C 527.550781 268.472656 527.550781 268.472656 524.453125 266.953125 C 520.777344 264.53125 520.777344 264.53125 517.152344 261.695312 L 513.476562 258.84375 L 510.710938 256.648438 C 511.566406 244.363281 516.40625 233.609375 521.015625 222.296875 C 516.347656 228.027344 511.914062 233.933594 507.703125 240.011719 L 504.511719 244.605469 L 502.121094 248.0625 C 494.84375 246.53125 489.585938 243.261719 483.230469 239.472656 C 485.441406 233.640625 488.105469 228.019531 491.21875 222.613281 L 493.949219 217.820312 L 496.863281 212.742188 C 507.386719 194.269531 517.695312 175.6875 527.886719 157.027344 M 431.699219 127.828125 C 446.222656 127.21875 460.070312 130.742188 473.996094 134.378906 L 478.957031 135.667969 C 490.351562 138.75 501.394531 142.527344 512.429688 146.722656 C 511.394531 156.894531 507.488281 165.570312 503.523438 174.882812 L 501.363281 180.023438 C 499.855469 183.597656 498.34375 187.167969 496.828125 190.734375 C 494.503906 196.214844 492.191406 201.703125 489.894531 207.199219 L 485.488281 217.605469 L 483.398438 222.605469 L 481.433594 227.195312 L 479.714844 231.246094 L 478.074219 234.320312 L 474.640625 236.039062 C 470.546875 234.703125 470.546875 234.703125 465.839844 232.710938 L 461.101562 230.730469 L 457.464844 229.167969 L 458.589844 225.589844 L 460.042969 220.902344 L 461.492188 216.25 C 462.835938 211.894531 462.835938 211.894531 462.617188 206.839844 L 447.160156 201.6875 L 443.722656 224.015625 C 425.257812 222.511719 425.257812 222.511719 421.394531 220.578125 C 423.171875 197.691406 425.210938 174.824219 427.515625 151.984375 L 428.175781 145.320312 L 428.808594 139.160156 L 429.371094 133.660156 L 429.984375 129.546875 Z M 454.03125 155.308594 C 452.390625 163.492188 452.167969 171.054688 452.3125 179.355469 L 458.753906 181.074219 L 462.378906 182.042969 C 466.550781 183.019531 466.550781 183.019531 472.921875 182.792969 L 479.792969 162.179688 C 471.050781 158.652344 463.398438 156.285156 454.03125 155.308594 M 654.988281 277.261719 C 662.835938 292.636719 669.664062 307.933594 674.636719 324.496094 L 675.917969 328.71875 C 678.5625 337.902344 679.925781 346.75 680.753906 356.269531 L 658.425781 361.421875 C 654.75 351.902344 651.492188 342.242188 648.65625 332.4375 L 647.484375 328.492188 C 644.683594 318.921875 644.683594 318.921875 644.683594 315.046875 L 636.097656 318.484375 C 636.875 330.398438 639.015625 341.621094 641.898438 353.203125 C 642.964844 357.988281 642.964844 357.988281 642.964844 363.140625 C 635.203125 364.859375 627.4375 366.570312 619.671875 368.277344 C 617.03125 368.859375 614.386719 369.445312 611.746094 370.027344 C 607.953125 370.867188 604.15625 371.703125 600.363281 372.535156 L 596.773438 373.332031 C 588.394531 375.164062 588.394531 375.164062 584.566406 375.164062 C 584.027344 372.988281 583.484375 370.8125 582.929688 368.570312 C 579.273438 354.105469 575.511719 340.589844 569.109375 327.070312 L 569.109375 320.199219 C 571.496094 318.996094 573.890625 317.8125 576.304688 316.660156 L 580.347656 314.667969 C 584.566406 313.332031 584.566406 313.332031 589.023438 313.078125 L 593.15625 315.046875 C 595.808594 319.632812 597.292969 324.496094 598.847656 329.542969 L 600.21875 333.648438 C 603.460938 343.53125 603.460938 343.53125 603.460938 347.683594 L 612.050781 344.246094 C 611.273438 333.933594 608.738281 325.640625 604.734375 316.101562 C 603.460938 311.613281 603.460938 311.613281 603.601562 307.445312 L 605.179688 303.023438 C 609.578125 299.683594 609.578125 299.683594 615.371094 296.550781 L 618.457031 294.855469 C 620.609375 293.679688 622.769531 292.519531 624.933594 291.367188 C 628.253906 289.601562 631.558594 287.8125 634.851562 286 C 650.9375 277.261719 650.9375 277.261719 654.988281 277.261719 M 144.859375 280.695312 C 152.070312 283.394531 158.804688 286.8125 165.582031 290.429688 L 169.097656 292.292969 C 171.546875 293.597656 173.996094 294.898438 176.445312 296.207031 C 180.121094 298.164062 183.800781 300.113281 187.480469 302.0625 C 201.523438 309.515625 215.367188 317.207031 229.023438 325.355469 C 227.589844 332.917969 225.464844 340.144531 223.117188 347.46875 C 220.371094 356.09375 217.726562 364.730469 215.28125 373.445312 C 198.070312 372.632812 181.296875 369.101562 164.421875 365.824219 C 159.425781 364.855469 154.421875 363.890625 149.421875 362.9375 C 146.238281 362.328125 143.050781 361.714844 139.867188 361.101562 L 135.34375 360.234375 L 131.15625 359.417969 L 127.480469 358.703125 C 124.246094 357.988281 124.246094 357.988281 119.09375 356.269531 C 120.964844 346.378906 123.035156 336.703125 125.964844 327.070312 C 139.789062 327.894531 152.238281 332.832031 165.148438 337.484375 C 168.554688 338.707031 171.960938 339.917969 175.371094 341.125 C 178.441406 342.214844 181.511719 343.3125 184.578125 344.414062 C 189.472656 346.222656 189.472656 346.222656 194.671875 345.964844 L 196.386719 333.941406 C 186.484375 330.421875 176.578125 326.902344 166.667969 323.378906 L 152.429688 318.320312 C 145.921875 316.011719 139.390625 313.773438 132.835938 311.613281 C 133.558594 300.519531 137.691406 292.027344 143.140625 282.414062 Z M 603.460938 211.992188 C 614.332031 216.613281 621.375 226.742188 628.320312 235.960938 C 630.949219 239.574219 633.542969 243.214844 636.097656 246.882812 L 638.597656 250.425781 L 640.929688 253.835938 L 643 256.859375 C 645.023438 260.730469 645.714844 264.375 646.402344 268.671875 C 637.523438 273.9375 628.636719 279.1875 619.746094 284.425781 C 612.179688 288.886719 604.636719 293.378906 597.105469 297.898438 L 585.960938 304.527344 L 580.589844 307.777344 L 575.585938 310.742188 L 571.160156 313.390625 L 567.390625 315.046875 L 562.238281 313.332031 C 559.152344 309.136719 559.152344 309.136719 555.796875 303.777344 C 550.621094 295.695312 545.242188 288.703125 538.453125 281.929688 L 536.476562 278.976562 C 536.648438 275.503906 536.648438 275.503906 538.191406 272.109375 C 540.761719 269.410156 540.761719 269.410156 544.097656 266.742188 C 549.882812 261.914062 555.238281 256.867188 560.519531 251.496094 C 566.640625 245.304688 573.011719 239.382812 579.628906 233.730469 C 583.996094 229.875 588.027344 225.726562 592.109375 221.570312 C 595.671875 218.082031 599.488281 215 603.460938 211.992188 M 600.027344 248.0625 C 596.835938 250.09375 596.835938 250.09375 593.632812 252.886719 L 589.972656 255.914062 L 586.175781 259.117188 C 583.691406 261.195312 581.203125 263.265625 578.710938 265.339844 L 575.375 268.144531 C 572.542969 270.390625 572.542969 270.390625 569.109375 272.109375 C 570.164062 277.195312 571.261719 279.632812 574.261719 284.132812 C 579.835938 283.015625 584.050781 280.988281 588.941406 278.113281 L 593.335938 275.546875 L 597.878906 272.859375 L 602.5 270.152344 C 606.261719 267.949219 610.015625 265.738281 613.765625 263.519531 C 612.742188 258.625 611.742188 256.199219 608.828125 251.925781 L 605.179688 248.0625 Z M 1640.898438 234.320312 L 1678.6875 234.320312 C 1676.160156 257.457031 1672.796875 280.414062 1669.214844 303.410156 C 1668.265625 309.527344 1667.320312 315.640625 1666.378906 321.757812 L 1662.914062 344.125 L 1662.214844 348.609375 C 1661.5 352.898438 1660.644531 357.164062 1659.792969 361.421875 L 1622.003906 361.421875 C 1623.160156 347.085938 1625.019531 332.96875 1627.210938 318.757812 L 1628.230469 312.074219 C 1628.941406 307.445312 1629.648438 302.8125 1630.363281 298.183594 C 1631.273438 292.261719 1632.179688 286.339844 1633.082031 280.414062 C 1633.949219 274.730469 1634.820312 269.046875 1635.691406 263.363281 L 1636.675781 256.9375 L 1637.59375 250.972656 L 1638.398438 245.734375 C 1639.058594 241.898438 1639.953125 238.097656 1640.898438 234.320312 M 376.738281 127.828125 C 378.488281 135.308594 378.976562 142.757812 379.375 150.40625 L 379.597656 154.410156 C 379.828125 158.609375 380.058594 162.8125 380.28125 167.011719 L 380.753906 175.582031 C 381.136719 182.566406 381.515625 189.546875 381.890625 196.53125 L 388.59375 196.472656 L 397.242188 196.425781 L 401.667969 196.382812 L 405.875 196.363281 L 409.773438 196.335938 L 412.808594 196.53125 L 414.523438 198.25 L 414.523438 220.578125 L 359.5625 224.015625 C 357.59375 212.464844 355.636719 200.910156 353.691406 189.355469 C 353.027344 185.425781 352.359375 181.496094 351.691406 177.570312 C 350.730469 171.917969 349.773438 166.265625 348.824219 160.609375 L 347.914062 155.308594 C 345.238281 139.265625 345.238281 139.265625 345.820312 131.261719 L 347.539062 129.546875 C 357.339844 127.972656 366.828125 127.621094 376.738281 127.828125 M 294.292969 146.722656 C 296.929688 153.804688 299.554688 160.890625 302.175781 167.984375 C 303.066406 170.386719 303.957031 172.792969 304.855469 175.199219 C 314.007812 199.796875 314.007812 199.796875 316.621094 211.992188 L 322.074219 210.113281 L 329.179688 207.699219 L 332.773438 206.457031 C 337.902344 204.71875 342.085938 203.402344 347.539062 203.402344 C 348.6875 206.476562 349.832031 209.554688 350.972656 212.636719 L 352.90625 217.828125 C 354.40625 222.296875 354.40625 222.296875 354.40625 225.730469 L 351.628906 226.726562 C 347.398438 228.246094 343.175781 229.78125 338.949219 231.316406 L 334.582031 232.878906 C 327.511719 235.453125 320.796875 238.164062 314.152344 241.699219 L 308.03125 244.625 L 302.878906 242.910156 C 300.351562 238.367188 298.011719 233.734375 295.855469 229.007812 L 293.847656 224.734375 C 291.726562 220.207031 289.621094 215.671875 287.527344 211.132812 C 286.121094 208.125 284.714844 205.121094 283.304688 202.113281 C 276.871094 188.367188 276.871094 188.367188 273.75 181.523438 C 272.496094 178.804688 271.222656 176.097656 269.921875 173.402344 L 267.964844 169.25 L 266.171875 165.511719 L 265.09375 162.179688 L 266.808594 157.027344 C 271.679688 154.269531 271.679688 154.269531 277.757812 151.554688 L 283.8125 148.796875 C 289.136719 146.722656 289.136719 146.722656 294.292969 146.722656 M 239.328125 172.484375 C 243.277344 174.160156 245.925781 175.621094 248.832031 178.816406 L 251.34375 182.308594 L 254.222656 186.261719 L 257.253906 190.519531 L 260.421875 194.890625 C 263.710938 199.4375 266.976562 203.996094 270.246094 208.554688 C 272.363281 211.488281 274.484375 214.421875 276.605469 217.351562 C 281.230469 223.742188 285.847656 230.140625 290.441406 236.554688 C 292.164062 238.894531 293.941406 241.195312 295.773438 243.449219 L 297.726562 246.34375 L 297.726562 251.496094 C 293.003906 254.933594 293.003906 254.933594 287.421875 258.367188 L 283.769531 261.480469 L 280.550781 263.519531 C 277.472656 263.417969 277.472656 263.417969 273.679688 261.800781 C 270.546875 258.582031 267.578125 255.21875 264.769531 251.710938 L 262.261719 248.664062 C 259.757812 245.609375 257.265625 242.546875 254.785156 239.472656 L 246.84375 229.8125 L 239.328125 220.578125 L 231.0625 210.488281 C 228.660156 207.558594 226.261719 204.625 223.871094 201.6875 L 219.878906 197.164062 L 217 193.097656 L 218.714844 187.945312 C 222.089844 185.136719 225.5625 182.453125 229.128906 179.894531 L 232.085938 177.730469 C 234.492188 175.972656 236.90625 174.222656 239.328125 172.484375 M 1160.613281 177.960938 C 1166.839844 179.355469 1166.839844 179.355469 1171.671875 182.46875 C 1177.539062 188.34375 1177.539062 188.34375 1178.863281 193.097656 C 1178.863281 198.472656 1178.820312 201.894531 1177.144531 206.839844 C 1172.292969 212.140625 1168.582031 214.832031 1161.792969 217.144531 C 1156.53125 217.144531 1156.53125 217.144531 1150.199219 215.320312 C 1144.507812 211.992188 1144.507812 211.992188 1141.183594 207.160156 C 1139.160156 201.09375 1138.199219 197.691406 1139.355469 191.378906 C 1142.3125 186.863281 1145.613281 182.933594 1149.664062 179.355469 C 1154.816406 177.640625 1154.816406 177.640625 1160.613281 177.960938 M 1671.816406 179.355469 C 1677.507812 183.007812 1677.507812 183.007812 1682.121094 187.945312 C 1683.910156 194.195312 1684.234375 198.269531 1682.765625 204.585938 C 1679.75 209.660156 1676.800781 212.253906 1671.816406 215.425781 C 1666.878906 217.039062 1666.878906 217.039062 1661.511719 217.144531 C 1655.179688 215.320312 1655.179688 215.320312 1649.488281 211.992188 C 1645.917969 206.808594 1644.546875 202.785156 1643.371094 196.640625 C 1644.386719 191.089844 1645.589844 189.132812 1649.058594 184.832031 C 1652.007812 181.457031 1653.867188 179.625 1658.113281 178.140625 C 1663.21875 177.386719 1666.832031 177.960938 1671.816406 179.355469 M 378.453125 394.058594 C 383.734375 392.875 388.597656 393.152344 393.914062 394.058594 C 405.988281 399.117188 416.8125 407.765625 424.828125 418.105469 C 426.058594 421.957031 426.058594 421.957031 426.546875 424.976562 C 413.5625 426.320312 403.003906 423.601562 390.871094 418.984375 C 383.652344 415.605469 378.847656 411.761719 373.300781 406.082031 C 373.945312 402.003906 373.945312 402.003906 375.019531 397.492188 Z M 378.453125 394.058594 " fill-opacity="1" fill-rule="nonzero"/></g></svg>