<?xml version="1.0" encoding="UTF-8" standalone="no"?>
<!DOCTYPE svg PUBLIC "-//W3C//DTD SVG 1.1//EN" "http://www.w3.org/Graphics/SVG/1.1/DTD/svg11.dtd">
<svg width="100%" height="100%" viewBox="0 0 47 70" version="1.1" xmlns="http://www.w3.org/2000/svg" xmlns:xlink="http://www.w3.org/1999/xlink" xml:space="preserve" xmlns:serif="http://www.serif.com/" style="fill-rule:evenodd;clip-rule:evenodd;stroke-linejoin:round;stroke-miterlimit:2;">
    <g transform="matrix(5.63369,0,0,5.83333,-10.2991,0)">
        <path d="M1.828,2.245C1.828,1.005 2.833,0 4.073,0L7.926,0C9.166,0 10.171,1.005 10.171,2.245C10.171,3.03 9.768,3.721 9.157,4.123C9.768,4.524 10.171,5.215 10.171,6C10.171,7.24 9.166,8.245 7.926,8.245L7.877,8.245C7.296,8.245 6.766,8.024 6.367,7.662L6.367,9.73C6.367,10.987 5.336,12 4.085,12C2.849,12 1.828,10.998 1.828,9.755C1.828,8.97 2.231,8.279 2.842,7.877C2.231,7.476 1.828,6.785 1.828,6C1.828,5.215 2.231,4.524 2.842,4.123C2.231,3.721 1.828,3.03 1.828,2.245ZM5.632,4.49L4.073,4.49C3.239,4.49 2.564,5.166 2.564,6C2.564,6.831 3.234,7.505 4.064,7.51C4.067,7.51 4.07,7.51 4.073,7.51L5.632,7.51L5.632,4.49ZM6.367,6C6.367,6.834 7.043,7.51 7.877,7.51L7.926,7.51C8.759,7.51 9.435,6.834 9.435,6C9.435,5.166 8.759,4.49 7.926,4.49L7.877,4.49C7.043,4.49 6.367,5.166 6.367,6ZM4.073,8.245C4.07,8.245 4.067,8.245 4.064,8.245C3.234,8.25 2.564,8.924 2.564,9.755C2.564,10.586 3.248,11.265 4.085,11.265C4.936,11.265 5.632,10.575 5.632,9.73L5.632,8.245L4.073,8.245ZM4.073,0.735C3.239,0.735 2.564,1.411 2.564,2.245C2.564,3.079 3.239,3.755 4.073,3.755L5.632,3.755L5.632,0.735L4.073,0.735ZM6.367,3.755L7.926,3.755C8.759,3.755 9.435,3.079 9.435,2.245C9.435,1.411 8.759,0.735 7.926,0.735L6.367,0.735L6.367,3.755Z" style="fill:rgb(203,213,225);fill-rule:nonzero;"/>
    </g>
</svg>
