<?xml version="1.0" encoding="UTF-8" standalone="no"?>
<!DOCTYPE svg PUBLIC "-//W3C//DTD SVG 1.1//EN" "http://www.w3.org/Graphics/SVG/1.1/DTD/svg11.dtd">
<svg width="100%" height="100%" viewBox="0 0 70 70" version="1.1" xmlns="http://www.w3.org/2000/svg" xmlns:xlink="http://www.w3.org/1999/xlink" xml:space="preserve" xmlns:serif="http://www.serif.com/" style="fill-rule:evenodd;clip-rule:evenodd;stroke-linejoin:round;stroke-miterlimit:2;">
    <g transform="matrix(7,0,0,7,-7,-7)">
        <path d="M6,11C3.239,11 1,8.761 1,6C1,3.239 3.239,1 6,1C8.761,1 11,3.239 11,6C11,8.761 8.761,11 6,11ZM8,4L7.325,4L7.325,6L8,6L8,4ZM4.673,4.855L7.702,8.769L8.23,8.365L4.841,4L4,4L4,7.998L4.673,7.998L4.673,4.855Z" style="fill:rgb(203,213,225);fill-rule:nonzero;"/>
    </g>
</svg>
