<?xml version="1.0" encoding="UTF-8" standalone="no"?>
<!DOCTYPE svg PUBLIC "-//W3C//DTD SVG 1.1//EN" "http://www.w3.org/Graphics/SVG/1.1/DTD/svg11.dtd">
<svg width="100%" height="100%" viewBox="0 0 70 62" version="1.1" xmlns="http://www.w3.org/2000/svg" xmlns:xlink="http://www.w3.org/1999/xlink" xml:space="preserve" xmlns:serif="http://www.serif.com/" style="fill-rule:evenodd;clip-rule:evenodd;stroke-linejoin:round;stroke-miterlimit:2;">
    <g transform="matrix(0.35,0,0,0.354267,0,-4.43007)">
        <path d="M163.359,69.219C161.25,68.516 159.141,67.852 157.031,67.227C157.383,65.781 157.695,64.336 158.008,62.891C162.813,39.609 159.648,20.898 148.984,14.727C138.711,8.828 121.953,14.961 105,29.727C103.32,31.172 101.68,32.695 100.117,34.219C99.062,33.203 97.969,32.188 96.875,31.211C79.102,15.43 61.289,8.789 50.625,15C40.391,20.937 37.344,38.555 41.641,60.586C42.07,62.773 42.539,64.922 43.086,67.109C40.586,67.813 38.125,68.594 35.82,69.414C14.961,76.641 0,88.047 0,99.844C0,112.031 15.937,124.258 37.617,131.68C39.375,132.266 41.133,132.852 42.93,133.359C42.344,135.703 41.836,138.008 41.367,140.391C37.266,162.07 40.469,179.258 50.703,185.156C61.25,191.25 78.984,185 96.25,169.883C97.617,168.672 98.984,167.422 100.352,166.094C102.07,167.773 103.867,169.375 105.664,170.938C122.383,185.313 138.906,191.133 149.102,185.234C159.648,179.141 163.086,160.664 158.633,138.164C158.281,136.445 157.891,134.688 157.461,132.891C158.711,132.539 159.922,132.148 161.133,131.758C183.672,124.297 200,112.227 200,99.844C200,88.008 184.609,76.523 163.359,69.219ZM110.508,36.055C125.039,23.398 138.594,18.438 144.766,21.992C151.367,25.781 153.906,41.094 149.766,61.211C149.492,62.539 149.219,63.828 148.867,65.117C140.195,63.164 131.406,61.758 122.578,60.977C117.5,53.711 111.953,46.758 105.937,40.234C107.461,38.789 108.945,37.422 110.508,36.055ZM65.313,120.117C67.305,123.516 69.336,126.914 71.484,130.234C65.391,129.57 59.336,128.594 53.359,127.305C55.078,121.68 57.227,115.859 59.727,109.922C61.523,113.359 63.359,116.758 65.313,120.117ZM53.477,73.125C59.102,71.875 65.078,70.859 71.289,70.078C69.219,73.32 67.187,76.641 65.273,80C63.359,83.32 61.484,86.719 59.727,90.156C57.266,84.336 55.195,78.633 53.477,73.125ZM64.18,100.039C66.758,94.648 69.57,89.375 72.539,84.18C75.508,78.984 78.711,73.945 82.07,68.984C87.93,68.555 93.906,68.32 100,68.32C106.094,68.32 112.109,68.555 117.93,68.984C121.25,73.906 124.414,78.945 127.422,84.102C130.43,89.258 133.242,94.531 135.898,99.883C133.281,105.273 130.469,110.586 127.461,115.82C124.492,121.016 121.328,126.055 118.008,131.055C112.188,131.484 106.133,131.68 100,131.68C93.867,131.68 87.93,131.484 82.187,131.133C78.789,126.172 75.586,121.094 72.578,115.898C69.57,110.703 66.797,105.43 64.18,100.039ZM134.727,120.039C136.719,116.602 138.594,113.125 140.43,109.609C142.93,115.273 145.117,121.016 147.031,126.914C140.977,128.281 134.844,129.336 128.672,130.039C130.781,126.758 132.773,123.398 134.727,120.039ZM140.352,90.156C138.516,86.719 136.641,83.281 134.687,79.922C132.773,76.602 130.781,73.32 128.711,70.078C135,70.859 141.016,71.914 146.641,73.203C144.844,78.984 142.734,84.609 140.352,90.156ZM100.078,46.211C104.18,50.664 108.047,55.352 111.641,60.195C103.906,59.844 96.133,59.844 88.398,60.195C92.227,55.156 96.172,50.469 100.078,46.211ZM54.766,22.266C61.328,18.438 75.898,23.906 91.25,37.5C92.227,38.359 93.203,39.297 94.219,40.234C88.164,46.758 82.578,53.711 77.461,60.977C68.633,61.758 59.883,63.125 51.211,65.039C50.703,63.047 50.273,61.016 49.844,58.984C46.172,40.078 48.594,25.82 54.766,22.266ZM45.195,125.234C43.555,124.766 41.953,124.258 40.352,123.711C32.031,121.094 22.578,116.953 15.742,111.523C11.797,108.789 9.141,104.57 8.398,99.844C8.398,92.695 20.742,83.555 38.555,77.344C40.781,76.563 43.047,75.859 45.312,75.195C47.969,83.672 51.172,91.992 54.883,100.039C51.133,108.203 47.891,116.641 45.195,125.234ZM90.742,163.516C84.297,169.414 76.836,174.102 68.711,177.305C64.375,179.375 59.375,179.57 54.922,177.813C48.711,174.219 46.133,160.43 49.648,141.875C50.078,139.688 50.547,137.5 51.094,135.352C59.844,137.227 68.672,138.516 77.617,139.18C82.773,146.484 88.437,153.477 94.492,160.039C93.242,161.25 91.992,162.422 90.742,163.516ZM100.312,154.023C96.328,149.727 92.344,144.961 88.477,139.844C92.227,140 96.094,140.078 100,140.078C104.023,140.078 107.969,140 111.875,139.805C108.281,144.766 104.414,149.492 100.312,154.023ZM151.367,165.742C151.016,170.508 148.672,174.961 144.922,177.969C138.711,181.563 125.469,176.875 111.172,164.609C109.531,163.203 107.891,161.68 106.211,160.117C112.187,153.516 117.695,146.523 122.695,139.18C131.641,138.438 140.547,137.07 149.336,135.078C149.727,136.68 150.078,138.281 150.391,139.844C152.305,148.281 152.617,157.07 151.367,165.742ZM158.477,123.75C157.383,124.102 156.289,124.453 155.156,124.766C152.422,116.25 149.062,107.93 145.195,99.844C148.945,91.875 152.109,83.672 154.766,75.273C156.797,75.859 158.75,76.484 160.625,77.109C178.828,83.359 191.602,92.656 191.602,99.766C191.602,107.422 177.969,117.305 158.477,123.75ZM100,117.891C109.883,117.891 117.891,109.883 117.891,100C117.891,90.117 109.883,82.109 100,82.109C90.117,82.109 82.109,90.117 82.109,100C82.109,109.883 90.117,117.891 100,117.891Z" style="fill:rgb(203,213,225);fill-rule:nonzero;"/>
    </g>
</svg>
