<?xml version="1.0" encoding="UTF-8" standalone="no"?>
<!DOCTYPE svg PUBLIC "-//W3C//DTD SVG 1.1//EN" "http://www.w3.org/Graphics/SVG/1.1/DTD/svg11.dtd">
<svg width="100%" height="100%" viewBox="0 0 70 70" version="1.1" xmlns="http://www.w3.org/2000/svg" xmlns:xlink="http://www.w3.org/1999/xlink" xml:space="preserve" xmlns:serif="http://www.serif.com/" style="fill-rule:evenodd;clip-rule:evenodd;stroke-linejoin:round;stroke-miterlimit:2;">
    <g transform="matrix(7.77778,0,0,7.77778,-11.6667,-11.6667)">
        <path d="M9.62,1.5L2.38,1.5C1.897,1.5 1.5,1.897 1.5,2.38L1.5,9.62C1.5,10.103 1.897,10.5 2.38,10.5L9.62,10.5C10.103,10.5 10.5,10.103 10.5,9.62L10.5,2.38C10.5,1.897 10.103,1.5 9.62,1.5ZM6.72,6.5L5.595,6.5L5.595,9.72L4.7,9.72L4.7,6.5L3.575,6.5L3.575,5.77L6.72,5.77L6.72,6.5ZM9.62,9.14C9.548,9.294 9.431,9.423 9.285,9.51C9.131,9.605 8.962,9.671 8.785,9.705C8.588,9.746 8.387,9.766 8.185,9.765C7.979,9.765 7.773,9.746 7.57,9.71C7.397,9.675 7.23,9.619 7.07,9.545L7.07,8.69L7.04,8.66L7.07,8.66L7.07,8.695C7.22,8.812 7.389,8.904 7.57,8.965C7.75,9.034 7.942,9.068 8.135,9.065C8.236,9.067 8.337,9.057 8.435,9.035C8.509,9.018 8.58,8.989 8.645,8.95C8.696,8.919 8.739,8.876 8.77,8.825C8.833,8.707 8.821,8.562 8.74,8.455C8.693,8.389 8.634,8.333 8.565,8.29C8.482,8.231 8.393,8.181 8.3,8.14L7.965,8C7.7,7.891 7.465,7.719 7.28,7.5C7.125,7.314 7.044,7.077 7.05,6.835C7.044,6.651 7.085,6.469 7.17,6.305C7.251,6.162 7.364,6.041 7.5,5.95C7.652,5.849 7.822,5.778 8,5.74C8.195,5.695 8.395,5.673 8.595,5.675C8.777,5.672 8.96,5.684 9.14,5.71C9.29,5.733 9.438,5.772 9.58,5.825L9.58,6.65C9.514,6.603 9.444,6.563 9.37,6.53C9.29,6.496 9.209,6.467 9.125,6.445C9.045,6.422 8.963,6.405 8.88,6.395C8.804,6.388 8.726,6.388 8.65,6.395C8.556,6.393 8.462,6.404 8.37,6.425C8.295,6.441 8.222,6.468 8.155,6.505C8.102,6.536 8.058,6.579 8.025,6.63C7.995,6.68 7.979,6.737 7.98,6.795C7.979,6.857 7.996,6.918 8.03,6.97C8.071,7.027 8.122,7.076 8.18,7.115C8.25,7.171 8.328,7.218 8.41,7.255L8.725,7.395C8.87,7.455 9.01,7.525 9.145,7.605C9.264,7.67 9.371,7.752 9.465,7.85C9.557,7.939 9.628,8.046 9.675,8.165C9.723,8.301 9.747,8.445 9.745,8.59C9.741,8.777 9.699,8.961 9.62,9.13L9.62,9.14Z" style="fill:rgb(203,213,225);fill-rule:nonzero;"/>
    </g>
</svg>
